<?xml version="1.0" encoding="UTF-8"?>
<svg id="Layer_2" data-name="Layer 2" xmlns="http://www.w3.org/2000/svg" viewBox="0 0 368.74 66.69" fill="#fff">
  <defs>
    <style>
      .cls-1 {
        fill: #fff;
      }
    </style>
  </defs>
  <g id="Layer_1-2" data-name="Layer 1">
    <g>
      <g>
        <path class="cls-1" d="m182.72,11.82l-16.87,39.38h-2.79l5.59-13.16-10.64-26.22h2.85l6.18,15.69,3.12,7.68,3.06-7.74,6.66-15.63h2.85Z"/>
        <path class="cls-1" d="m191.48,11.82v4.73c2.04-3.65,5.75-5.16,9.46-5.21,7.09,0,11.98,4.35,11.98,11.71v15.31h-2.63v-15.26c0-6.02-3.71-9.24-9.46-9.19-5.48.05-9.29,4.19-9.29,9.67v14.78h-2.63V11.82h2.58Z"/>
        <path class="cls-1" d="m221.19,28.37c4.03,2.63,7.25,2.85,9.4,2.96,1.77,0,2.69-.43,2.69-1.29s-.86-1.29-2.79-1.45c-5.16-.16-11.39-2.26-11.39-8.7s6.02-8.7,12.25-8.7c4.3,0,8.27,1.29,10.85,3.22l-4.19,5.91c-1.45-.91-4.51-1.67-6.66-1.61-1.4,0-2.36.32-2.36,1.29,0,.48.38,1.24,1.99,1.29,5.53.16,12.2,1.72,12.2,8.76,0,6.55-5.96,9.03-12.36,9.03-4.62,0-9.83-1.29-12.84-3.49l3.22-7.2Z"/>
        <path class="cls-1" d="m276.16,25.14c0,9.67-7.68,13.86-15.15,13.86s-15.15-4.19-15.15-13.86,7.47-13.92,15.15-13.92,15.15,4.25,15.15,13.92Zm-9.67,0c0-3.06-1.99-5.8-5.48-5.8s-5.48,2.74-5.48,5.8,1.99,5.75,5.48,5.75,5.48-2.53,5.48-5.75Z"/>
        <path class="cls-1" d="m305.06,34.38c-3.17,2.85-6.98,4.51-10.96,4.51-7.74,0-15.04-3.81-15.04-13.75s7.42-13.92,14.88-13.92c3.81,0,7.63,1.34,10.42,4.14l-5.27,5.69c-1.29-1.34-2.79-1.93-4.57-1.93-3.76,0-5.8,2.74-5.8,6.07,0,2.9,1.99,5.48,5.75,5.48,1.83,0,3.6-.75,4.94-2.2l5.64,5.91Z"/>
        <path class="cls-1" d="m313.39,0c2.74,0,5.53,1.67,5.53,5s-2.79,4.94-5.53,4.94-5.59-1.67-5.59-4.94,2.79-5,5.59-5Zm4.94,38.36V12.25h-9.94v26.11h9.94Z"/>
        <path class="cls-1" d="m343.86,11.82h9.29v26.54h-9.13l-.43-2.85c-2.26,2.58-5.8,3.49-8.76,3.33-7.79-.48-12.14-6.02-12.14-13.75s5.16-13.86,12.89-13.86c3.76,0,6.39,1.29,7.79,3.44l.48-2.85Zm-11.34,13.27c0,3.71,2.36,5.8,5.32,5.8,3.33,0,5.48-2.69,5.48-5.8,0-3.55-1.99-5.86-5.48-5.86-2.96,0-5.32,2.15-5.32,5.86Z"/>
        <path class="cls-1" d="m368.74.7v37.66h-9.78V.7h9.78Z"/>
      </g>
      <g>
        <g>
          <g>
            <path class="cls-1" d="m35.42.02C35.11,0,34.79,0,34.47,0H0v2.73c0,4.27,3.47,7.74,7.74,7.74h4.84c-3.89,4.82-6.23,10.95-6.23,17.63,0,15.52,12.59,28.1,28.11,28.1s28.1-12.59,28.1-28.1S50.5.52,35.42.02Zm-.95,45.72c-9.74,0-17.63-7.89-17.63-17.63s7.89-17.63,17.63-17.63,17.62,7.89,17.62,17.63-7.89,17.63-17.62,17.63Z"/>
            <path class="cls-1" d="m44.18,28.1c0,5.36-4.34,9.71-9.7,9.71s-9.71-4.35-9.71-9.71,4.34-9.71,9.71-9.71,9.7,4.35,9.7,9.71Z"/>
          </g>
          <g>
            <path class="cls-1" d="m69.86,28.1c0,15.52,12.59,28.1,28.1,28.1,15.53,0,28.11-12.59,28.11-28.1,0-6.68-2.34-12.82-6.23-17.63h4.84c4.27,0,7.74-3.47,7.74-7.74V0h-34.47c-.32,0-.63,0-.95.02-15.08.5-27.16,12.89-27.16,28.09Zm10.48,0c0-9.74,7.89-17.63,17.62-17.63s17.63,7.89,17.63,17.63-7.89,17.63-17.63,17.63-17.62-7.89-17.62-17.63Z"/>
            <path class="cls-1" d="m88.26,28.1c0,5.36,4.34,9.71,9.7,9.71,5.37,0,9.71-4.35,9.71-9.71s-4.34-9.71-9.71-9.71-9.7,4.35-9.7,9.71Z"/>
          </g>
        </g>
        <path class="cls-1" d="m71.9,51.42c0,5.83-2.13,11.17-5.68,15.26-3.68-4.25-5.84-9.83-5.68-15.92.05-1.69.93-3.27,2.4-4.11,4.45-2.55,8.96.59,8.96,4.77Z"/>
      </g>
    </g>
  </g>
</svg>
