<?xml version="1.0" encoding="UTF-8"?>
<svg id="Layer_2" data-name="Layer 2" xmlns="http://www.w3.org/2000/svg" viewBox="0 0 132.44 66.69">
  <defs>
    <style>
      .cls-1 {
        fill: #ff0849;
      }
    </style>
  </defs>
  <g id="Layer_1-2" data-name="Layer 1">
    <g>
      <g>
        <g>
          <path class="cls-1" d="m35.42.02C35.11,0,34.79,0,34.47,0H0v2.73c0,4.27,3.47,7.74,7.74,7.74h4.84c-3.89,4.82-6.23,10.95-6.23,17.63,0,15.52,12.59,28.1,28.11,28.1s28.1-12.59,28.1-28.1S50.5.52,35.42.02Zm-.95,45.72c-9.74,0-17.63-7.89-17.63-17.63s7.89-17.63,17.63-17.63,17.62,7.89,17.62,17.63-7.89,17.63-17.62,17.63Z"/>
          <path class="cls-1" d="m44.18,28.1c0,5.36-4.34,9.71-9.7,9.71s-9.71-4.35-9.71-9.71,4.34-9.71,9.71-9.71,9.7,4.35,9.7,9.71Z"/>
        </g>
        <g>
          <path class="cls-1" d="m69.86,28.1c0,15.52,12.59,28.1,28.1,28.1,15.53,0,28.11-12.59,28.11-28.1,0-6.68-2.34-12.82-6.23-17.63h4.84c4.27,0,7.74-3.47,7.74-7.74V0h-34.47c-.32,0-.63,0-.95.02-15.08.5-27.16,12.89-27.16,28.09Zm10.48,0c0-9.74,7.89-17.63,17.62-17.63,9.74,0,17.63,7.89,17.63,17.63,0,9.74-7.89,17.63-17.63,17.63-9.73,0-17.62-7.89-17.62-17.63Z"/>
          <path class="cls-1" d="m88.26,28.1c0,5.36,4.34,9.71,9.7,9.71s9.71-4.35,9.71-9.71-4.34-9.71-9.71-9.71-9.7,4.35-9.7,9.71Z"/>
        </g>
      </g>
      <path class="cls-1" d="m71.9,51.42c0,5.83-2.13,11.17-5.68,15.26-3.68-4.25-5.84-9.83-5.68-15.92.05-1.69.93-3.27,2.4-4.11,4.45-2.55,8.96.59,8.96,4.77Z"/>
    </g>
  </g>
</svg>